<svg width="32" height="32" viewBox="0 0 32 32" fill="none" xmlns="http://www.w3.org/2000/svg">
<path d="M15.9998 2.66663C14.2489 2.66663 12.5151 3.0115 10.8974 3.68157C9.27972 4.35163 7.80986 5.33375 6.57175 6.57187C4.07126 9.07235 2.6665 12.4637 2.6665 16C2.6665 19.5362 4.07126 22.9276 6.57175 25.4281C7.80986 26.6662 9.27972 27.6483 10.8974 28.3184C12.5151 28.9884 14.2489 29.3333 15.9998 29.3333C19.5361 29.3333 22.9274 27.9285 25.4279 25.4281C27.9284 22.9276 29.3332 19.5362 29.3332 16C29.3332 14.249 28.9883 12.5152 28.3182 10.8975C27.6482 9.27984 26.666 7.80998 25.4279 6.57187C24.1898 5.33375 22.72 4.35163 21.1023 3.68157C19.4846 3.0115 17.7508 2.66663 15.9998 2.66663ZM9.4265 24.3733C9.99984 23.1733 13.4932 22 15.9998 22C18.5065 22 21.9998 23.1733 22.5732 24.3733C20.7053 25.8607 18.3875 26.6693 15.9998 26.6666C13.5198 26.6666 11.2398 25.8133 9.4265 24.3733ZM24.4798 22.44C22.5732 20.12 17.9465 19.3333 15.9998 19.3333C14.0532 19.3333 9.4265 20.12 7.51984 22.44C6.1016 20.5927 5.33292 18.3289 5.33317 16C5.33317 10.12 10.1198 5.33329 15.9998 5.33329C21.8798 5.33329 26.6665 10.12 26.6665 16C26.6665 18.4266 25.8398 20.6666 24.4798 22.44ZM15.9998 7.99996C13.4132 7.99996 11.3332 10.08 11.3332 12.6666C11.3332 15.2533 13.4132 17.3333 15.9998 17.3333C18.5865 17.3333 20.6665 15.2533 20.6665 12.6666C20.6665 10.08 18.5865 7.99996 15.9998 7.99996ZM15.9998 14.6666C15.4694 14.6666 14.9607 14.4559 14.5856 14.0808C14.2106 13.7058 13.9998 13.1971 13.9998 12.6666C13.9998 12.1362 14.2106 11.6275 14.5856 11.2524C14.9607 10.8773 15.4694 10.6666 15.9998 10.6666C16.5303 10.6666 17.039 10.8773 17.4141 11.2524C17.7891 11.6275 17.9998 12.1362 17.9998 12.6666C17.9998 13.1971 17.7891 13.7058 17.4141 14.0808C17.039 14.4559 16.5303 14.6666 15.9998 14.6666Z" fill="#798AA3"/>
</svg>
